<mxfile host="Electron" modified="2023-10-31T00:41:50.307Z" agent="Mozilla/5.0 (Windows NT 10.0; Win64; x64) AppleWebKit/537.36 (KHTML, like Gecko) draw.io/22.0.1 Chrome/114.0.5735.289 Electron/25.8.4 Safari/537.36" etag="hVc9AXwklv1gfPZrbiY5" version="22.0.1" type="device">
  <diagram name="Page-1" id="I1tpKcfnqch8U0cST2aE">
    <mxGraphModel dx="969" dy="716" grid="1" gridSize="10" guides="1" tooltips="1" connect="1" arrows="1" fold="1" page="1" pageScale="1" pageWidth="1100" pageHeight="850" math="0" shadow="0">
      <root>
        <mxCell id="0" />
        <mxCell id="1" parent="0" />
        <mxCell id="1OUD1hDySkvXqp3UaBYx-84" value="" style="rounded=0;whiteSpace=wrap;html=1;fillColor=none;fontColor=#ffffff;strokeColor=#006EAF;dashed=1;dashPattern=8 8;" vertex="1" parent="1">
          <mxGeometry x="350" y="190" width="560" height="420" as="geometry" />
        </mxCell>
        <mxCell id="1OUD1hDySkvXqp3UaBYx-90" value="" style="rounded=0;whiteSpace=wrap;html=1;fillColor=none;fontColor=#ffffff;strokeColor=#006EAF;dashed=1;dashPattern=8 8;" vertex="1" parent="1">
          <mxGeometry x="200" y="600" width="120" height="180" as="geometry" />
        </mxCell>
        <mxCell id="1OUD1hDySkvXqp3UaBYx-8" style="edgeStyle=orthogonalEdgeStyle;rounded=0;orthogonalLoop=1;jettySize=auto;html=1;exitX=0.5;exitY=1;exitDx=0;exitDy=0;entryX=0.5;entryY=0;entryDx=0;entryDy=0;" edge="1" parent="1" source="1OUD1hDySkvXqp3UaBYx-3" target="1OUD1hDySkvXqp3UaBYx-7">
          <mxGeometry relative="1" as="geometry" />
        </mxCell>
        <mxCell id="1OUD1hDySkvXqp3UaBYx-3" value="" style="rounded=0;whiteSpace=wrap;html=1;" vertex="1" parent="1">
          <mxGeometry x="400" y="220" width="80" height="30" as="geometry" />
        </mxCell>
        <mxCell id="1OUD1hDySkvXqp3UaBYx-4" value="s_idle" style="text;html=1;align=center;verticalAlign=middle;resizable=0;points=[];autosize=1;strokeColor=none;fillColor=none;" vertex="1" parent="1">
          <mxGeometry x="380" y="190" width="50" height="30" as="geometry" />
        </mxCell>
        <mxCell id="1OUD1hDySkvXqp3UaBYx-6" style="edgeStyle=orthogonalEdgeStyle;rounded=0;orthogonalLoop=1;jettySize=auto;html=1;entryX=0.5;entryY=0;entryDx=0;entryDy=0;" edge="1" parent="1" source="1OUD1hDySkvXqp3UaBYx-5" target="1OUD1hDySkvXqp3UaBYx-3">
          <mxGeometry relative="1" as="geometry" />
        </mxCell>
        <mxCell id="1OUD1hDySkvXqp3UaBYx-5" value="reset" style="text;html=1;align=center;verticalAlign=middle;resizable=0;points=[];autosize=1;strokeColor=none;fillColor=none;" vertex="1" parent="1">
          <mxGeometry x="415" y="120" width="50" height="30" as="geometry" />
        </mxCell>
        <mxCell id="1OUD1hDySkvXqp3UaBYx-64" style="edgeStyle=orthogonalEdgeStyle;rounded=0;orthogonalLoop=1;jettySize=auto;html=1;exitX=0.5;exitY=1;exitDx=0;exitDy=0;entryX=0.5;entryY=0;entryDx=0;entryDy=0;" edge="1" parent="1" source="1OUD1hDySkvXqp3UaBYx-7" target="1OUD1hDySkvXqp3UaBYx-63">
          <mxGeometry relative="1" as="geometry" />
        </mxCell>
        <mxCell id="1OUD1hDySkvXqp3UaBYx-67" style="edgeStyle=orthogonalEdgeStyle;rounded=0;orthogonalLoop=1;jettySize=auto;html=1;entryX=0;entryY=0.5;entryDx=0;entryDy=0;" edge="1" parent="1" source="1OUD1hDySkvXqp3UaBYx-7" target="1OUD1hDySkvXqp3UaBYx-66">
          <mxGeometry relative="1" as="geometry" />
        </mxCell>
        <mxCell id="1OUD1hDySkvXqp3UaBYx-7" value="~X~Y" style="rhombus;whiteSpace=wrap;html=1;" vertex="1" parent="1">
          <mxGeometry x="400" y="360" width="80" height="80" as="geometry" />
        </mxCell>
        <mxCell id="1OUD1hDySkvXqp3UaBYx-74" style="edgeStyle=orthogonalEdgeStyle;rounded=0;orthogonalLoop=1;jettySize=auto;html=1;entryX=1;entryY=0.5;entryDx=0;entryDy=0;" edge="1" parent="1" source="1OUD1hDySkvXqp3UaBYx-62" target="1OUD1hDySkvXqp3UaBYx-72">
          <mxGeometry relative="1" as="geometry">
            <Array as="points">
              <mxPoint x="440" y="650" />
            </Array>
          </mxGeometry>
        </mxCell>
        <mxCell id="1OUD1hDySkvXqp3UaBYx-62" value="incr" style="ellipse;whiteSpace=wrap;html=1;" vertex="1" parent="1">
          <mxGeometry x="400" y="540" width="80" height="30" as="geometry" />
        </mxCell>
        <mxCell id="1OUD1hDySkvXqp3UaBYx-65" style="edgeStyle=orthogonalEdgeStyle;rounded=0;orthogonalLoop=1;jettySize=auto;html=1;entryX=0.5;entryY=0;entryDx=0;entryDy=0;" edge="1" parent="1" source="1OUD1hDySkvXqp3UaBYx-63" target="1OUD1hDySkvXqp3UaBYx-62">
          <mxGeometry relative="1" as="geometry" />
        </mxCell>
        <mxCell id="1OUD1hDySkvXqp3UaBYx-63" value="decr" style="ellipse;whiteSpace=wrap;html=1;" vertex="1" parent="1">
          <mxGeometry x="400" y="480" width="80" height="30" as="geometry" />
        </mxCell>
        <mxCell id="1OUD1hDySkvXqp3UaBYx-71" style="edgeStyle=orthogonalEdgeStyle;rounded=0;orthogonalLoop=1;jettySize=auto;html=1;entryX=0;entryY=0.5;entryDx=0;entryDy=0;" edge="1" parent="1" source="1OUD1hDySkvXqp3UaBYx-66" target="1OUD1hDySkvXqp3UaBYx-70">
          <mxGeometry relative="1" as="geometry" />
        </mxCell>
        <mxCell id="1OUD1hDySkvXqp3UaBYx-75" style="edgeStyle=orthogonalEdgeStyle;rounded=0;orthogonalLoop=1;jettySize=auto;html=1;entryX=1;entryY=0.5;entryDx=0;entryDy=0;" edge="1" parent="1" source="1OUD1hDySkvXqp3UaBYx-66" target="1OUD1hDySkvXqp3UaBYx-72">
          <mxGeometry relative="1" as="geometry">
            <Array as="points">
              <mxPoint x="610" y="650" />
            </Array>
          </mxGeometry>
        </mxCell>
        <mxCell id="1OUD1hDySkvXqp3UaBYx-66" value="XY" style="rhombus;whiteSpace=wrap;html=1;" vertex="1" parent="1">
          <mxGeometry x="570" y="360" width="80" height="80" as="geometry" />
        </mxCell>
        <mxCell id="1OUD1hDySkvXqp3UaBYx-68" value="1" style="text;html=1;align=center;verticalAlign=middle;resizable=0;points=[];autosize=1;strokeColor=none;fillColor=none;" vertex="1" parent="1">
          <mxGeometry x="440" y="440" width="30" height="30" as="geometry" />
        </mxCell>
        <mxCell id="1OUD1hDySkvXqp3UaBYx-69" value="0" style="text;html=1;align=center;verticalAlign=middle;resizable=0;points=[];autosize=1;strokeColor=none;fillColor=none;" vertex="1" parent="1">
          <mxGeometry x="465" y="370" width="30" height="30" as="geometry" />
        </mxCell>
        <mxCell id="1OUD1hDySkvXqp3UaBYx-77" style="edgeStyle=orthogonalEdgeStyle;rounded=0;orthogonalLoop=1;jettySize=auto;html=1;entryX=0.5;entryY=0;entryDx=0;entryDy=0;" edge="1" parent="1" source="1OUD1hDySkvXqp3UaBYx-70" target="1OUD1hDySkvXqp3UaBYx-76">
          <mxGeometry relative="1" as="geometry" />
        </mxCell>
        <mxCell id="1OUD1hDySkvXqp3UaBYx-82" style="edgeStyle=orthogonalEdgeStyle;rounded=0;orthogonalLoop=1;jettySize=auto;html=1;entryX=1;entryY=0.5;entryDx=0;entryDy=0;" edge="1" parent="1" source="1OUD1hDySkvXqp3UaBYx-70" target="1OUD1hDySkvXqp3UaBYx-72">
          <mxGeometry relative="1" as="geometry">
            <mxPoint x="360" y="650" as="targetPoint" />
            <Array as="points">
              <mxPoint x="860" y="400" />
              <mxPoint x="860" y="650" />
            </Array>
          </mxGeometry>
        </mxCell>
        <mxCell id="1OUD1hDySkvXqp3UaBYx-70" value="X~Y" style="rhombus;whiteSpace=wrap;html=1;" vertex="1" parent="1">
          <mxGeometry x="720" y="360" width="80" height="80" as="geometry" />
        </mxCell>
        <mxCell id="1OUD1hDySkvXqp3UaBYx-87" style="edgeStyle=orthogonalEdgeStyle;rounded=0;orthogonalLoop=1;jettySize=auto;html=1;entryX=0.5;entryY=0;entryDx=0;entryDy=0;" edge="1" parent="1" source="1OUD1hDySkvXqp3UaBYx-72" target="1OUD1hDySkvXqp3UaBYx-86">
          <mxGeometry relative="1" as="geometry" />
        </mxCell>
        <mxCell id="1OUD1hDySkvXqp3UaBYx-72" value="" style="rounded=0;whiteSpace=wrap;html=1;" vertex="1" parent="1">
          <mxGeometry x="220" y="630" width="80" height="40" as="geometry" />
        </mxCell>
        <mxCell id="1OUD1hDySkvXqp3UaBYx-73" value="s_hold" style="text;html=1;align=center;verticalAlign=middle;resizable=0;points=[];autosize=1;strokeColor=none;fillColor=none;" vertex="1" parent="1">
          <mxGeometry x="220" y="600" width="60" height="30" as="geometry" />
        </mxCell>
        <mxCell id="1OUD1hDySkvXqp3UaBYx-78" style="edgeStyle=orthogonalEdgeStyle;rounded=0;orthogonalLoop=1;jettySize=auto;html=1;entryX=1;entryY=0.5;entryDx=0;entryDy=0;" edge="1" parent="1" source="1OUD1hDySkvXqp3UaBYx-76" target="1OUD1hDySkvXqp3UaBYx-72">
          <mxGeometry relative="1" as="geometry">
            <mxPoint x="360" y="650" as="targetPoint" />
            <Array as="points">
              <mxPoint x="760" y="650" />
            </Array>
          </mxGeometry>
        </mxCell>
        <mxCell id="1OUD1hDySkvXqp3UaBYx-76" value="decr" style="ellipse;whiteSpace=wrap;html=1;" vertex="1" parent="1">
          <mxGeometry x="720" y="540" width="80" height="30" as="geometry" />
        </mxCell>
        <mxCell id="1OUD1hDySkvXqp3UaBYx-79" value="1" style="text;html=1;align=center;verticalAlign=middle;resizable=0;points=[];autosize=1;strokeColor=none;fillColor=none;" vertex="1" parent="1">
          <mxGeometry x="615" y="438" width="30" height="30" as="geometry" />
        </mxCell>
        <mxCell id="1OUD1hDySkvXqp3UaBYx-80" value="0" style="text;html=1;align=center;verticalAlign=middle;resizable=0;points=[];autosize=1;strokeColor=none;fillColor=none;" vertex="1" parent="1">
          <mxGeometry x="645" y="370" width="30" height="30" as="geometry" />
        </mxCell>
        <mxCell id="1OUD1hDySkvXqp3UaBYx-81" value="1" style="text;html=1;align=center;verticalAlign=middle;resizable=0;points=[];autosize=1;strokeColor=none;fillColor=none;" vertex="1" parent="1">
          <mxGeometry x="760" y="440" width="30" height="30" as="geometry" />
        </mxCell>
        <mxCell id="1OUD1hDySkvXqp3UaBYx-83" value="0" style="text;html=1;align=center;verticalAlign=middle;resizable=0;points=[];autosize=1;strokeColor=none;fillColor=none;" vertex="1" parent="1">
          <mxGeometry x="800" y="370" width="30" height="30" as="geometry" />
        </mxCell>
        <mxCell id="1OUD1hDySkvXqp3UaBYx-88" style="edgeStyle=orthogonalEdgeStyle;rounded=0;orthogonalLoop=1;jettySize=auto;html=1;exitX=1;exitY=0.5;exitDx=0;exitDy=0;" edge="1" parent="1" source="1OUD1hDySkvXqp3UaBYx-86">
          <mxGeometry relative="1" as="geometry">
            <mxPoint x="440" y="170" as="targetPoint" />
            <Array as="points">
              <mxPoint x="340" y="740" />
              <mxPoint x="340" y="800" />
              <mxPoint x="150" y="800" />
              <mxPoint x="150" y="170" />
            </Array>
          </mxGeometry>
        </mxCell>
        <mxCell id="1OUD1hDySkvXqp3UaBYx-89" style="edgeStyle=orthogonalEdgeStyle;rounded=0;orthogonalLoop=1;jettySize=auto;html=1;" edge="1" parent="1" source="1OUD1hDySkvXqp3UaBYx-86">
          <mxGeometry relative="1" as="geometry">
            <mxPoint x="330" y="650" as="targetPoint" />
            <Array as="points">
              <mxPoint x="180" y="740" />
              <mxPoint x="180" y="550" />
            </Array>
          </mxGeometry>
        </mxCell>
        <mxCell id="1OUD1hDySkvXqp3UaBYx-86" value="XY" style="rhombus;whiteSpace=wrap;html=1;" vertex="1" parent="1">
          <mxGeometry x="230" y="710" width="60" height="60" as="geometry" />
        </mxCell>
        <mxCell id="1OUD1hDySkvXqp3UaBYx-92" value="1" style="text;html=1;align=center;verticalAlign=middle;resizable=0;points=[];autosize=1;strokeColor=none;fillColor=none;" vertex="1" parent="1">
          <mxGeometry x="280" y="710" width="30" height="30" as="geometry" />
        </mxCell>
        <mxCell id="1OUD1hDySkvXqp3UaBYx-93" value="0" style="text;html=1;align=center;verticalAlign=middle;resizable=0;points=[];autosize=1;strokeColor=none;fillColor=none;" vertex="1" parent="1">
          <mxGeometry x="200" y="710" width="30" height="30" as="geometry" />
        </mxCell>
        <mxCell id="1OUD1hDySkvXqp3UaBYx-94" value="incr" style="ellipse;whiteSpace=wrap;html=1;" vertex="1" parent="1">
          <mxGeometry x="820" y="520" width="80" height="30" as="geometry" />
        </mxCell>
      </root>
    </mxGraphModel>
  </diagram>
</mxfile>
